<svg width="22" height="22" viewBox="0 0 22 22" fill="none" xmlns="http://www.w3.org/2000/svg">
<path d="M9.16663 5.5L9.16644 4.5837C9.16624 3.57103 9.98711 2.75 10.9998 2.75V2.75C12.0122 2.75 12.8329 3.57059 12.8331 4.58297L12.8333 5.5M12.8327 16.9583H15.9805C17.4411 16.9583 18.2263 15.2425 17.2716 14.1372L16.6188 13.3813C15.8111 12.4463 15.4234 11.2204 15.5464 9.99096V9.99096C15.8115 7.34111 13.7307 5.04167 11.0676 5.04167H10.9325C8.2692 5.04167 6.1881 7.34112 6.45296 9.9912V9.9912C6.57581 11.2205 6.1881 12.4462 5.38067 13.3812L4.72804 14.137C3.77337 15.2425 4.55873 16.9583 6.0194 16.9583H9.16608M12.8327 16.9583V17.4167C12.8327 18.4292 12.0119 19.25 10.9994 19.25V19.25C9.98689 19.25 9.16608 18.4292 9.16608 17.4167V16.9583M12.8327 16.9583H9.16608" stroke="white" stroke-width="1.5" stroke-linejoin="round"/>
</svg>
