<svg width="70" height="18" viewBox="0 0 70 18" fill="none" xmlns="http://www.w3.org/2000/svg">
<path d="M9.54666 0.771999V2.548H2.27466V8.188H8.17866V9.964H2.27466V17.5H0.0906569V0.771999H9.54666ZM11.6084 10.876C11.6084 9.532 11.8804 8.356 12.4244 7.348C12.9684 6.324 13.7124 5.532 14.6564 4.972C15.6164 4.412 16.6804 4.132 17.8484 4.132C19.0004 4.132 20.0004 4.38 20.8484 4.876C21.6964 5.372 22.3284 5.996 22.7444 6.748V4.348H24.9524V17.5H22.7444V15.052C22.3124 15.82 21.6644 16.46 20.8004 16.972C19.9524 17.468 18.9604 17.716 17.8244 17.716C16.6564 17.716 15.6004 17.428 14.6564 16.852C13.7124 16.276 12.9684 15.468 12.4244 14.428C11.8804 13.388 11.6084 12.204 11.6084 10.876ZM22.7444 10.9C22.7444 9.908 22.5444 9.044 22.1444 8.308C21.7444 7.572 21.2004 7.012 20.5124 6.628C19.8404 6.228 19.0964 6.028 18.2804 6.028C17.4644 6.028 16.7204 6.22 16.0484 6.604C15.3764 6.988 14.8404 7.548 14.4404 8.284C14.0404 9.02 13.8404 9.884 13.8404 10.876C13.8404 11.884 14.0404 12.764 14.4404 13.516C14.8404 14.252 15.3764 14.82 16.0484 15.22C16.7204 15.604 17.4644 15.796 18.2804 15.796C19.0964 15.796 19.8404 15.604 20.5124 15.22C21.2004 14.82 21.7444 14.252 22.1444 13.516C22.5444 12.764 22.7444 11.892 22.7444 10.9ZM33.5392 17.716C32.5312 17.716 31.6272 17.548 30.8272 17.212C30.0272 16.86 29.3952 16.38 28.9312 15.772C28.4672 15.148 28.2112 14.436 28.1632 13.636H30.4192C30.4832 14.292 30.7872 14.828 31.3312 15.244C31.8912 15.66 32.6192 15.868 33.5152 15.868C34.3472 15.868 35.0032 15.684 35.4832 15.316C35.9632 14.948 36.2032 14.484 36.2032 13.924C36.2032 13.348 35.9472 12.924 35.4352 12.652C34.9232 12.364 34.1312 12.084 33.0592 11.812C32.0832 11.556 31.2832 11.3 30.6592 11.044C30.0512 10.772 29.5232 10.38 29.0752 9.868C28.6432 9.34 28.4272 8.652 28.4272 7.804C28.4272 7.132 28.6272 6.516 29.0272 5.956C29.4272 5.396 29.9952 4.956 30.7312 4.636C31.4672 4.3 32.3072 4.132 33.2512 4.132C34.7072 4.132 35.8832 4.5 36.7792 5.236C37.6752 5.972 38.1552 6.98 38.2192 8.26H36.0352C35.9872 7.572 35.7072 7.02 35.1952 6.604C34.6992 6.188 34.0272 5.98 33.1792 5.98C32.3952 5.98 31.7712 6.148 31.3072 6.484C30.8432 6.82 30.6112 7.26 30.6112 7.804C30.6112 8.236 30.7472 8.596 31.0192 8.884C31.3072 9.156 31.6592 9.38 32.0752 9.556C32.5072 9.716 33.0992 9.9 33.8512 10.108C34.7952 10.364 35.5632 10.62 36.1552 10.876C36.7472 11.116 37.2512 11.484 37.6672 11.98C38.0992 12.476 38.3232 13.124 38.3392 13.924C38.3392 14.644 38.1392 15.292 37.7392 15.868C37.3392 16.444 36.7712 16.9 36.0352 17.236C35.3152 17.556 34.4832 17.716 33.5392 17.716ZM47.3982 17.716C46.1662 17.716 45.0462 17.436 44.0382 16.876C43.0462 16.316 42.2622 15.524 41.6862 14.5C41.1262 13.46 40.8462 12.26 40.8462 10.9C40.8462 9.556 41.1342 8.372 41.7102 7.348C42.3022 6.308 43.1022 5.516 44.1102 4.972C45.1182 4.412 46.2462 4.132 47.4942 4.132C48.7422 4.132 49.8702 4.412 50.8782 4.972C51.8862 5.516 52.6782 6.3 53.2542 7.324C53.8462 8.348 54.1422 9.54 54.1422 10.9C54.1422 12.26 53.8382 13.46 53.2302 14.5C52.6382 15.524 51.8302 16.316 50.8062 16.876C49.7822 17.436 48.6462 17.716 47.3982 17.716ZM47.3982 15.796C48.1822 15.796 48.9182 15.612 49.6062 15.244C50.2942 14.876 50.8462 14.324 51.2622 13.588C51.6942 12.852 51.9102 11.956 51.9102 10.9C51.9102 9.844 51.7022 8.948 51.2862 8.212C50.8702 7.476 50.3262 6.932 49.6542 6.58C48.9822 6.212 48.2542 6.028 47.4702 6.028C46.6702 6.028 45.9342 6.212 45.2622 6.58C44.6062 6.932 44.0782 7.476 43.6782 8.212C43.2782 8.948 43.0782 9.844 43.0782 10.9C43.0782 11.972 43.2702 12.876 43.6542 13.612C44.0542 14.348 44.5822 14.9 45.2382 15.268C45.8942 15.62 46.6142 15.796 47.3982 15.796ZM63.6618 4.108C65.2618 4.108 66.5578 4.596 67.5498 5.572C68.5418 6.532 69.0378 7.924 69.0378 9.748V17.5H66.8778V10.06C66.8778 8.748 66.5498 7.748 65.8938 7.06C65.2378 6.356 64.3418 6.004 63.2058 6.004C62.0538 6.004 61.1338 6.364 60.4458 7.084C59.7738 7.804 59.4378 8.852 59.4378 10.228V17.5H57.2538V4.348H59.4378V6.22C59.8698 5.548 60.4538 5.028 61.1898 4.66C61.9418 4.292 62.7658 4.108 63.6618 4.108Z" fill="white"/>
</svg>
